<?xml version="1.0" encoding="UTF-8" standalone="no"?><!DOCTYPE svg PUBLIC "-//W3C//DTD SVG 1.1//EN" "http://www.w3.org/Graphics/SVG/1.1/DTD/svg11.dtd"><svg width="100%" height="100%" viewBox="0 0 278 69" version="1.1" xmlns="http://www.w3.org/2000/svg" xmlns:xlink="http://www.w3.org/1999/xlink" xml:space="preserve" style="fill-rule:evenodd;clip-rule:evenodd;stroke-linecap:round;stroke-linejoin:round;stroke-miterlimit:1.5;"><g id="logo"><g id="name"><text x="94.024px" y="44.395px" style="font-family:'CooperBlack', 'Cooper Black', serif;font-size:31.713px;">BizConnect</text></g><g id="symbol"><circle cx="39.972" cy="33.181" r="8.858"/><circle cx="4.429" cy="4.429" r="4.429"/><circle cx="40.231" cy="4.429" r="4.429"/><circle cx="77.527" cy="4.429" r="4.429"/><circle cx="77.527" cy="33.181" r="4.429"/><circle cx="78.599" cy="64.437" r="4.429"/><circle cx="40.231" cy="64.437" r="4.429"/><circle cx="4.429" cy="64.437" r="4.429"/><circle cx="4.429" cy="33.181" r="4.429"/><path d="M4.171,4.429l35.801,28.752" style="fill:none;"/><path d="M75.773,4.429l-35.801,28.752" style="fill:none;"/><path d="M4.171,4.429l35.801,28.752" style="stroke:#000;stroke-width:0.75px;"/><path d="M39.972,33.181l35.801,28.751" style="stroke:#000;stroke-width:0.75px;"/><path d="M39.972,33.181l35.801,-28.752" style="stroke:#000;stroke-width:0.75px;"/><path d="M4.171,61.932l35.801,-28.751" style="stroke:#000;stroke-width:0.75px;"/><path d="M4.429,64.437l35.802,0" style="fill:none;stroke:#000;stroke-width:0.75px;"/><path d="M4.171,33.181l35.801,0" style="fill:none;stroke:#000;stroke-width:0.75px;"/><path d="M4.171,33.181l0,-28.752" style="fill:none;stroke:#000;stroke-width:0.75px;"/><path d="M4.171,61.932l0,-28.751" style="fill:none;stroke:#000;stroke-width:0.75px;"/><path d="M77.527,60.266l0,-28.752" style="fill:none;stroke:#000;stroke-width:0.75px;"/><path d="M77.527,33.181l0,-28.752" style="fill:none;stroke:#000;stroke-width:0.75px;"/><path d="M40.978,32.88l0,-28.15" style="fill:none;stroke:#000;stroke-width:0.75px;"/><path d="M39.972,61.932l0,-28.751" style="fill:none;stroke:#000;stroke-width:0.75px;"/><path d="M4.171,4.429l35.801,0" style="fill:none;stroke:#000;stroke-width:0.75px;"/><path d="M40.231,64.437l35.801,0" style="fill:none;stroke:#000;stroke-width:0.75px;"/><path d="M39.972,33.181l35.801,0" style="fill:none;stroke:#000;stroke-width:0.75px;"/><path d="M39.972,4.429l35.801,0" style="fill:none;stroke:#000;stroke-width:0.75px;"/></g></g></svg>